<svg width="40" height="46" viewBox="0 0 40 46" fill="none" xmlns="http://www.w3.org/2000/svg">
<g clip-path="url(#clip0_63_1384)">
<path d="M19.6937 45.4674L39.3873 34.1066V11.3608L19.6937 0L0 11.3608V34.1066L19.6937 45.4674ZM19.6937 41.3979L6.39499 34.1308H33.0408L19.6937 41.3979ZM19.6937 4.06954L33.1134 11.3366H6.46766L19.6937 4.06954Z" fill="#FF4601"/>
<path d="M16.593 15.0428H36.0929V19.5968C35.3675 19.7216 34.7156 20.1148 34.2668 20.6983C33.818 21.2817 33.6051 22.0127 33.6705 22.7458C33.6058 23.4762 33.8194 24.204 34.2686 24.7835C34.7178 25.363 35.3695 25.7513 36.0929 25.8707V30.4489H16.7141L16.593 15.0428Z" fill="#111317"/>
<path d="M12.2814 15.0428H4.14233V19.5968C4.86776 19.7216 5.51965 20.1148 5.96845 20.6983C6.41725 21.2817 6.63009 22.0127 6.56468 22.7458C6.62945 23.4762 6.41582 24.204 5.9666 24.7835C5.51739 25.363 4.86577 25.7513 4.14233 25.8707V30.4489H12.2814V15.0428Z" fill="#111317"/>
</g>
<defs>
<clipPath id="clip0_63_1384">
<rect width="39.3873" height="45.4674" fill="white"/>
</clipPath>
</defs>
</svg>
